<svg id="Capa_1" enable-background="new 0 0 512 512" height="512" viewBox="0 0 512 512" width="512" xmlns="http://www.w3.org/2000/svg"><g><ellipse cx="436.5" cy="306.649" fill="#b3e59f" rx="68" ry="76.899"/><path d="m436.5 229.75c-5.157 0-10.172.671-15 1.9 30.335 7.727 53 38.36 53 74.998s-22.665 67.271-53 74.998c4.828 1.23 9.843 1.9 15 1.9 37.555 0 68-34.429 68-76.898s-30.445-76.898-68-76.898z" fill="#95d6a4"/><path d="m429 500.75c0 4.143 3.357 7.5 7.5 7.5s7.5-3.357 7.5-7.5v-147.438l23.714-23.714c2.929-2.93 2.929-7.678 0-10.607-2.93-2.928-7.678-2.928-10.607 0l-13.107 13.107v-23.125c0-4.143-3.357-7.5-7.5-7.5s-7.5 3.357-7.5 7.5z" fill="#ce9775"/><g><path d="m316.116 3.75c-30.758 0-55.693 24.934-55.693 55.692v.073c0 3.871-2.605 7.295-6.363 8.225-17.662 4.373-30.758 20.319-30.758 39.333 0 1.642.1 3.261.292 4.851.444 3.686-1.728 7.205-5.183 8.564-23.354 9.192-39.887 31.938-39.887 58.555 0 28.477 18.924 52.524 44.878 60.282.156 1.612 3.372 29.965 28.126 41.814 18.509 8.86 36.361 2.414 40.56.748 13.504-5.356 21.075-14.921 24.028-19.129 2.953 4.209 10.524 13.773 24.028 19.129 4.199 1.665 22.051 8.112 40.56-.748 24.753-11.849 27.97-40.201 28.125-41.814 25.954-7.758 44.878-31.805 44.878-60.282 0-26.618-16.533-49.363-39.887-58.555-3.455-1.36-5.627-4.879-5.183-8.564.192-1.59.291-3.209.291-4.851 0-19.014-13.096-34.961-30.758-39.333-3.758-.93-6.363-4.354-6.363-8.225v-.073c.002-30.758-24.933-55.692-55.691-55.692z" fill="#b3e59f"/><g><path d="m413.821 120.489c-3.454-1.36-5.627-4.878-5.182-8.564.192-1.59.292-3.209.292-4.851 0-19.014-13.096-34.961-30.758-39.333-3.758-.93-6.363-4.354-6.363-8.225v-.073c0-30.758-24.935-55.692-55.692-55.692-5.199 0-10.226.728-15 2.061 23.469 6.551 40.692 28.073 40.692 53.632v.073c0 3.871 2.605 7.295 6.363 8.225 17.662 4.372 30.758 20.319 30.758 39.333 0 1.642-.1 3.261-.292 4.851-.445 3.686 1.728 7.204 5.182 8.564 23.354 9.192 39.887 31.938 39.887 58.555 0 27.228-17.3 50.406-41.504 59.168-2.015.729-3.499 2.445-3.904 4.549-1.585 8.217-7.477 28.749-27.595 38.379-1.984.95-3.958 1.714-5.912 2.337 7.478 2.179 21.495 4.564 35.912-2.337 24.753-11.849 27.97-40.201 28.126-41.814 25.954-7.758 44.877-31.805 44.877-60.282-.001-26.619-16.533-49.365-39.887-58.556z" fill="#95d6a4"/></g><path d="m323.616 227.877 32.765-32.763c2.929-2.93 2.929-7.678 0-10.607-2.93-2.927-7.679-2.929-10.606 0l-22.158 22.157v-49.657c0-4.143-3.357-7.5-7.5-7.5s-7.5 3.357-7.5 7.5v35.263l-22.157-22.157c-2.93-2.928-7.678-2.928-10.607 0-2.929 2.93-2.929 7.678 0 10.607l32.765 32.765v287.265c0 4.143 3.357 7.5 7.5 7.5s7.5-3.357 7.5-7.5v-272.873z" fill="#ce9775"/></g><g><path d="m230.307 252.298c0 68.777-49.877 124.532-111.403 124.532-61.527 0-111.404-55.755-111.404-124.532s49.877-248.548 111.403-248.548c61.527 0 111.404 179.771 111.404 248.548z" fill="#95d6a4"/><path d="m118.903 3.75c-5.087 0-10.094 1.236-15 3.529 54.432 25.446 96.403 181.928 96.403 245.019 0 63.09-41.972 115.215-96.403 123.405 4.907.738 9.912 1.127 15 1.127 61.526 0 111.403-55.755 111.403-124.532s-49.876-248.548-111.403-248.548z" fill="#78c2a4"/><path d="m157.704 248.17c2.929-2.93 2.929-7.678 0-10.607-2.93-2.928-7.678-2.928-10.607 0l-20.693 20.693v-31.361c0-4.143-3.357-7.5-7.5-7.5s-7.5 3.357-7.5 7.5c0 10.98.013 52.689 0 63.15l-20.694-20.693c-2.93-2.928-7.678-2.928-10.607 0-2.929 2.93-2.929 7.678 0 10.607l31.301 31.301v189.49c0 4.143 3.357 7.5 7.5 7.5s7.5-3.357 7.5-7.5v-192.592c0-.003 0-.007 0-.01v-28.676z" fill="#ce9775"/></g><g><path d="m504.5 508.25h-497c-4.143 0-7.5-3.357-7.5-7.5s3.357-7.5 7.5-7.5h497c4.143 0 7.5 3.357 7.5 7.5s-3.357 7.5-7.5 7.5z" fill="#c6855b"/></g></g></svg>